<?xml version="1.0" encoding="utf-8"?>
<!-- Generator: Adobe Illustrator 19.0.0, SVG Export Plug-In . SVG Version: 6.00 Build 0)  -->
<svg version="1.1" id="Capa_1" xmlns="http://www.w3.org/2000/svg" xmlns:xlink="http://www.w3.org/1999/xlink" x="0px" y="0px"
	 viewBox="80 194.1 198 215" style="enable-background:new 80 194.1 198 215;" xml:space="preserve">
<style type="text/css">
	.st0{opacity:0.2;fill:#C6833E;enable-background:new    ;}
	.st1{fill:#FFFFFF;}
	.st2{fill:#AF1B2E;}
	.st3{fill:#898F08;}
	.st4{clip-path:url(#SVGID_2_);fill:#F6A30F;}
	.st5{fill:#F6A30F;}
</style>
<g>
	<path class="st0" d="M257.1,325.4c11.9-12.2,10.3-23,3.8-22.6c16.3-63.6-50.2-116.4-107.9-88.7c-8.2-3.4-10.8,4.9-10.8,4.9
		c-7.5-2.7-10.3,5.4-10.3,5.4c-8.6-1.6-9.8,8-9.8,8c-8.6,0.5-7.6,9.2-7.6,9.2c-8.1,1.2-6,11.6-6,11.6c-7.7,2.6-5.4,13.4-5.4,13.4
		c-6.7,4.7-4.7,16.4-4.7,16.4c-4.6,15.7,5,26.4,9.9,30.8c-28,38.9,16,46,20.9,59.7c2.2,6.1-5.8,17.5-19.2,5.9
		c-6.8-5.9-17.2-1.8-14.9,8.4c1.4,6.5,19.3,22.5,49.2,6.3c13.5-7.3,72.2-13.4,97-18.6c9-2.3,11.8-5.3,12.7-11.9
		C255.6,348.3,264.9,328.9,257.1,325.4"/>
	<path class="st1" d="M258.2,321c11.9-12.2,10.3-23,3.8-22.6c16.3-63.6-50.2-116.4-107.9-88.7c-8.2-3.4-10.8,4.9-10.8,4.9
		c-7.5-2.7-10.3,5.4-10.3,5.4c-8.6-1.6-9.8,8-9.8,8c-8.6,0.5-7.6,9.2-7.6,9.2c-8.1,1.2-6,11.6-6,11.6c-7.7,2.7-5.4,13.4-5.4,13.4
		c-6.7,4.7-4.7,16.4-4.7,16.4c-4.6,15.7,5,26.4,9.9,30.8c-28,38.9,16,46,21,59.7c2.2,6.1-5.8,17.5-19.2,5.9
		c-6.8-5.9-17.2-1.8-14.9,8.4c1.4,6.5,19.3,22.5,49.2,6.3c13.5-7.3,72.2-13.4,97-18.6c9-2.3,11.8-5.3,12.7-11.9
		C256.7,343.9,266,324.4,258.2,321"/>
	<path class="st2" d="M261.6,306.3c0,0.9-0.2,1.7-0.5,2.6c-0.3,0.8-0.8,1.6-1.4,2.4c-0.6,0.7-13.2,12.9-13.9,12.3
		c-0.6-0.6,6.2-14.1,6.5-14.9c0.4-0.9,0.8-1.7,1.4-2.4c0.6-0.8,1.3-1.4,2-1.9c0.8-0.5,1.5-0.9,2.4-1c1.1-0.2,1.9,0,2.5,0.6
		C261.2,304.4,261.6,305.2,261.6,306.3 M130.8,339c-3.9-11.9,17.3,3,16.6-17.7c-0.7-22.1-33.6-15-32.8,8.1
		c0.8,21.9,36.4,15.1,32.2,43.2c-2.9,19.4-27.5,24.9-42.2,14.8c-7.8-5.4,0.1-11.7,3-8.1c7.8,9.8,31.1,6.5,30.5-8.8
		c-0.7-20.9-37.3-16.1-29.9-43.8c2.5-9.5,8.7-18.3,17.5-22.4c31.3-14.5,40.4,29.2,11.1,35.6C135.4,340.2,131.3,340.9,130.8,339
		 M151.9,349.1c0-4.7,5.5-6.6,9.2-7.5c0.5-0.2,1.1,0,1.5,0.5c3.9,5.5-2.5,23.3-4.2,28.8c-0.7,2.4-1.1,5.3-1.6,7.6
		c-0.7,3.1-5.2,2.5-5.8,2C145.2,376.4,161.9,354.8,151.9,349.1 M165.1,329.3c0,1-0.2,2-0.6,2.9s-0.9,1.8-1.6,2.7
		c-0.6,0.8-1.4,1.5-2.3,2.1s-1.8,0.9-2.7,1.1c-1.2,0.2-2.2,0-2.9-0.7c-0.7-0.7-1-1.6-1-2.8c0-0.9,0.2-1.8,0.6-2.7
		c0.4-1,1-1.9,1.6-2.7c0.7-0.8,1.4-1.5,2.3-2.1s1.8-1,2.7-1.1c1.2-0.2,2.1,0,2.8,0.7C164.7,327.2,165.1,328.1,165.1,329.3
		 M223,351.3c-2.6,4.6-3.9,9-7.1,13.3c-16.6,22.1-24.2-10.7-2.5-28.8c3.3-2.8,9.5-6.7,14-5.7c0.6,0.1,1,0.9-0.1,1.7
		c-27.9,18.3-21,32-17,29c8-5.2,19.1-37.1,25.8-28.5c1.2,1-9.4,21-6,26.9c2.6,4.3,6.2-1.1,7.1,2.5
		C235.9,366.5,216.3,377.5,223,351.3 M243.7,365.5c-0.9,0.2-1.8,0-2.6-0.5c-0.8-0.6-1.2-1.4-1.2-2.5c0-1.7,0.3-3.5,0.8-5.4
		c0.6-1.9,1.2-3.9,1.8-5.9c0.7-2,1.2-4,1.8-6s0.8-3.8,0.8-5.5c0-1.8-0.2-3.1-0.5-3.9s-0.7-1.3-1.1-1.6c-0.4-0.3-0.8-0.4-1.1-0.4
		s-0.5-0.1-0.5-0.2c0-1.1,0.3-2.1,0.8-2.9c0.6-0.8,1.3-1.6,2.2-2.2c0.9-0.6,1.9-1.1,3-1.5s2.1-0.7,3.2-1c0.7-0.1,1.2,0,1.5,0.5
		c0.4,0.4,0.6,1,0.8,1.7c0.2,0.7,0.2,1.4,0.3,2.2c0,0.8,0.1,1.4,0.1,2c0,2.3-0.3,4.7-0.9,7.3c-0.6,2.5-1.3,5.1-2.1,7.8l-2.3,7.9
		c-0.8,2.6-1.3,5.1-1.6,7.6c-0.4,0.8-0.9,1.4-1.4,1.8C244.9,365.1,244.3,365.4,243.7,365.5"/>
	<path class="st3" d="M252.9,280.8c-0.2,6.1-1.2,12-3,17.5c-13.9,20.8-49.6,44.9-73.2,23.4c-21.2-19.4-34.8-28.2-52.3-22.4
		c-2.4-7.2-3.6-15-3.3-23c1.3-36.4,31.8-64.9,68.2-63.6C225.7,213.9,254.2,244.4,252.9,280.8 M129.6,283.5c0.2,1.8,0.4,3.6,0.7,5.4
		l57-52.8l4,3.7l-30.4,36.8l33.4-33l4.1,3.8L174.5,275l26.8-24.8l4,3.7l-13.7,15l16.1-12.1l35.4,35.2c1.4-5.9,1.9-12.2,1.4-18.6
		c-2.8-31.8-30.8-55.2-62.5-52.5C150.3,223.8,126.8,251.8,129.6,283.5"/>
	<g>
		<defs>
			<path id="SVGID_1_" d="M129.6,283.5c-2.8-31.7,20.7-59.7,52.5-62.5c31.7-2.8,59.7,20.7,62.5,52.5c0.6,6.4,0.1,12.6-1.4,18.6
				l-35.4-35.2L191.7,269l13.7-15l-4-3.7L174.5,275l23.9-27.7l-4.1-3.8l-33.4,33l30.4-36.8l-4-3.7l-57,52.8
				C130,287.1,129.7,285.3,129.6,283.5 M121.2,276.2c-0.3,8.1,0.9,15.8,3.3,23c17.5-5.7,31.1,3,52.3,22.4
				c23.6,21.6,59.3-2.5,73.2-23.4c1.7-5.5,2.8-11.4,3-17.5c1.3-36.4-27.2-66.9-63.6-68.2h-2.3C151.7,212.6,122.4,240.6,121.2,276.2"
				/>
		</defs>
		<clipPath id="SVGID_2_">
			<use xlink:href="#SVGID_1_"  style="overflow:visible;"/>
		</clipPath>
		<path class="st4" d="M146.7,226.4c3.4-2.9,7,0.9,3.9,3.8c-0.2,0.1-2.6,2.3-5.2,4.8c-15,15-21.6,35.4-17.1,56.8
			c7.1,34.2,40.3,50.5,64.4,50.4c3.7,0.3,3.9,5.1,0,5.4c-54,0-90.8-58.6-61.6-104.2C138.8,231.6,146.7,226.4,146.7,226.4"/>
	</g>
	<path class="st1" d="M178.7,310.9c0.4,0.5,0.8,1,1.3,1.5c0.5,0.4,1,0.8,1.6,1.1c0.6,0.3,1.1,0.6,1.8,0.7c0.6,0.2,1.2,0.2,1.9,0.2
		c1.6-0.1,3.1-0.6,4.3-1.4c1.3-0.8,2.4-1.9,3.4-3.2c1-1.3,1.9-2.8,2.7-4.6c0.8-1.7,1.5-3.6,2.2-5.5c-0.6-0.5-1.1-1-1.5-1.5
		c-0.4-0.6-0.5-1.1-0.5-1.7c0-0.2,0.1-0.4,0.1-0.6c0.1-0.2,0.2-0.4,0.3-0.5c0.1-0.2,0.3-0.3,0.4-0.4c0.2-0.1,0.3-0.2,0.5-0.2
		l0.4,0.1c0.1,0.4,0.2,0.8,0.4,1.1l0.6,0.9c0.4-1.4,0.8-2.7,1.1-4.1l1.1-4.1c0.4-1.3,0.7-2.6,1.1-3.9s0.8-2.4,1.2-3.6l0.3-0.9
		c0.2-0.3,0.3-0.6,0.5-0.8c0.2-0.2,0.4-0.4,0.6-0.5c0.2-0.2,0.4-0.2,0.6-0.2c0.3,0,0.4,0.1,0.5,0.4s0.1,0.8,0,1.5
		c-0.1,1.1-0.3,2.4-0.5,3.8c-0.2,1.4-0.5,2.9-0.8,4.4c-0.3,1.6-0.7,3.2-1.1,4.8c-0.4,1.7-0.9,3.3-1.5,5c0.7,0.2,1.4,0.3,2.1,0.3
		c0.8,0,1.5-0.2,2.3-0.6c0.8-0.3,1.5-0.8,2.2-1.3c0.7-0.6,1.3-1.2,1.9-1.9c0.6-0.7,1.1-1.5,1.5-2.2c0.4-0.8,0.8-1.6,1.1-2.4
		s0.5-1.7,0.6-2.5c0.1-1,0.1-2.1,0-3.1s-0.4-2-0.8-2.9s-0.8-1.8-1.4-2.6c-0.6-0.8-1.3-1.4-2.1-2c-0.8-0.5-1.8-1-2.8-1.2
		c-1-0.3-2.2-0.4-3.4-0.3c-1.5,0.1-3,0.4-4.4,0.8c-1.4,0.4-2.7,1-3.9,1.7c-1.2,0.7-2.3,1.5-3.2,2.5c-1,0.9-1.8,1.9-2.5,3
		s-1.3,2.2-1.7,3.4c-0.4,1.2-0.7,2.4-0.9,3.6c-0.1,1.3-0.1,2.6,0.2,3.8c0.2,1.2,0.7,2.3,1.4,3.3s1.6,1.9,2.7,2.6s2.5,1.3,4.2,1.6
		l0.4,0.8c-2,0.1-3.8-0.1-5.3-0.7c-1.5-0.6-2.7-1.5-3.6-2.6c-0.9-1.2-1.6-2.7-2-4.4c-0.4-1.7-0.4-3.7-0.2-5.9
		c0.2-1.5,0.5-2.9,1.2-4.3c0.6-1.3,1.4-2.6,2.3-3.7c0.9-1.1,2-2.1,3.2-3s2.5-1.7,3.8-2.3c1.4-0.6,2.7-1.2,4.2-1.5
		c1.4-0.4,2.9-0.6,4.2-0.7c1.2-0.1,2.5,0,3.7,0.1c1.2,0.2,2.4,0.4,3.5,0.8c1.1,0.4,2.1,0.9,3,1.6s1.7,1.4,2.3,2.4
		c0.6,0.9,1.1,2,1.4,3.3c0.3,1.2,0.4,2.6,0.2,4.1c-0.1,1.4-0.4,2.7-0.9,3.9c-0.5,1.3-1,2.5-1.7,3.6s-1.5,2.2-2.3,3.1
		c-0.9,0.9-1.8,1.8-2.7,2.5c-1,0.7-2,1.2-3,1.7c-1,0.4-2,0.6-3,0.7c-0.4,0-0.8,0-1.2-0.1s-0.9-0.2-1.4-0.4l-1.8,3.9
		c-0.7,1.3-1.4,2.5-2.2,3.6s-1.7,2.1-2.6,3.1s-1.9,1.8-3,2.5c-1.1,0.7-2.2,1.3-3.5,1.7c-1.2,0.4-2.5,0.7-3.9,0.8c-0.7,0-1.4,0-2-0.1
		s-1.3-0.2-1.9-0.5c-0.6-0.2-1.2-0.5-1.6-0.9c-0.5-0.4-0.9-0.9-1.3-1.5c-0.2-0.3-0.3-0.6-0.3-1c0-0.2,0.1-0.5,0.2-0.7
		c0.1-0.2,0.3-0.4,0.4-0.6c0.2-0.2,0.4-0.4,0.6-0.5S178.4,310.9,178.7,310.9"/>
	<path class="st5" d="M169.9,229.8c-1.9,0.5-5.5,3.8-9.2,3.5c-5.9-0.6-5.2-4.1,1.1-5C166.1,227.7,171.3,229.4,169.9,229.8"/>
	<path class="st5" d="M149.4,212.1c-0.6,1.7-4.4,4.8-4.1,8.2c0.5,5.4,4.4,4.9,5.5-0.8C151.6,215.6,149.8,210.8,149.4,212.1"/>
	<path class="st5" d="M139.1,217.5c-0.5,2-4.4,6-3.6,9.8c1.2,6,5.5,4.9,6.1-1.6C142,221.2,139.5,216,139.1,217.5"/>
	<path class="st5" d="M165.5,237c-2.5,0.5-7.3,4.3-11.9,3.5c-7.4-1.3-6.1-5.6,1.9-6.1C160.9,234.1,167.3,236.7,165.5,237"/>
	<path class="st5" d="M128.4,224c0,2.3-3.2,7.4-1.3,11.2c2.9,6.2,7.4,4.1,6.3-3.1C132.5,227.4,128.4,222.4,128.4,224"/>
	<path class="st5" d="M159.8,243.7c-2.7,0.9-7.6,5.8-13,5.5c-8.6-0.5-7.9-5.6,1.2-7.2C154.2,240.9,161.8,243,159.8,243.7"/>
	<path class="st5" d="M119.5,233.4c0.5,2.6-1.7,8.9,1.3,12.8c4.9,6.3,9.4,3,6.3-4.7C125,236.3,119.1,231.6,119.5,233.4"/>
	<path class="st5" d="M155.6,252.9c-3,1.1-8,6.7-13.9,6.5c-9.4-0.3-8.9-5.8,0.9-7.9C149.3,250,157.8,252.1,155.6,252.9"/>
	<path class="st5" d="M113.3,243.4c0.8,2.8-1.2,9.9,2.4,13.9c5.8,6.5,10.5,2.6,6.5-5.7C119.5,246,112.7,241.4,113.3,243.4"/>
	<path class="st5" d="M153.6,262.3c-3,1.4-7.8,7.7-14.1,8c-10,0.5-10-5.5,0.2-8.5C146.6,259.8,155.9,261.3,153.6,262.3"/>
	<path class="st5" d="M108.4,257.2c1.1,2.8-0.3,10.6,3.9,14.5c6.7,6.3,11.3,1.6,6.3-6.7C115.2,259.4,107.6,255.1,108.4,257.2"/>
	<path class="st5" d="M153,272.5c-3.1,1.5-7.9,8.4-14.5,9c-10.5,0.9-10.7-5.3-0.1-8.9C145.5,270.2,155.3,271.4,153,272.5"/>
	<path class="st5" d="M105.4,271.1c1.6,2.8,1.2,10.9,6.2,14.5c8,5.6,12.1,0.3,5.7-7.7C112.9,272.5,104.2,269,105.4,271.1"/>
	<path class="st5" d="M103,286.9c2.3,2.2,4.4,10.1,10.2,12c9.3,3,11.7-3.3,3.2-9C110.7,286,101.3,285.3,103,286.9"/>
	<path class="st5" d="M154.2,283.8c-3.2,1.3-8.5,7.8-15.1,8c-10.6,0.2-10.3-6.1,0.5-8.9C146.9,281,156.5,282.9,154.2,283.8"/>
	<path class="st5" d="M123.7,296.7c0.6-0.4,17.4-12.3,44.6,13.9c24.9,24,56.6,22.2,81.5-12.4l0.1,0.1c-23.8,34.8-55.8,43.9-84.2,16
		c-7.8-7.6-25.1-21.6-41.2-14.9C124.4,299.4,123.7,296.7,123.7,296.7"/>
	<path class="st2" d="M169.6,344.2c0.9-4.6,10.3-9.3,10.5-2.9c0.1,4.4-2.7,12.2-4,16.9c3.9-6.1,12.1-19,18.4-21.9
		c9.7-4.4-15.8,32.5,1.6,30.5c6.2-0.7-1.4,6.6-7.3,7.6c-9.8,1.7-6.4-9.1-4.3-15c3.5-9.8,0.4-5.9-1.8-2.7c-2.4,3.5-8.4,14.4-9.6,18.3
		c-0.9,2.8-10.9,7.5-7.9-2.3c1.2-4,9.8-25.6,6.2-28C170.9,344.2,170.3,343.9,169.6,344.2"/>
	<path class="st1" d="M213.4,308.5c-1.2,2-2.5,3.9-3.9,5.7c-7.7,9.2-9.7-5.3,0.1-12.6c1.5-1.1,4.3-2.7,6.2-2.2
		c0.2,0.1,0.4,0.4-0.1,0.8c-13,6.6-10.3,14.7-8.5,13.5c3.6-2.1,9.5-16.9,12.2-13c0.5,0.4-4.6,8.9-3.2,11.6c1.4,1.2,2.7-0.3,3,1.3
		C218.7,315.4,209.9,319.7,213.4,308.5"/>
	<path class="st1" d="M223.3,301.6c0.5-1.8,4.4-3.5,4.3-0.9c-0.1,1.8-1.5,4.9-2.1,6.7c1.8-2.4,5.4-7.3,8.1-8.3
		c4.1-1.5-7.3,12.7-0.2,12.4c2.5-0.1-0.8,2.6-3.2,2.9c-4,0.4-2.3-3.9-1.3-6.2c1.7-3.9,0.3-2.4-0.7-1.2c-1.1,1.3-3.8,5.6-4.4,7.1
		c-0.4,1.1-4.6,2.7-3.1-1.2c0.6-1.6,4.7-10.1,3.3-11.2C223.9,301.6,223.6,301.5,223.3,301.6"/>
</g>
</svg>
